<svg width="36" height="34" viewBox="0 0 36 34" fill="none" xmlns="http://www.w3.org/2000/svg">
<path d="M9.08301 0H27.583V21.3333L15.9997 33.3333L14.3747 32.0417C14.208 31.9028 14.083 31.7083 13.9997 31.4583C13.9163 31.2083 13.8747 30.9028 13.8747 30.5417V30.125L15.7497 21.3333H3.29134C2.62467 21.3333 2.04134 21.0833 1.54134 20.5833C1.04134 20.0833 0.791341 19.5 0.791341 18.8333V15.4167C0.791341 15.2222 0.770508 15.0208 0.728841 14.8125C0.687174 14.6042 0.708008 14.4028 0.791341 14.2083L6.04134 2.125C6.29134 1.54167 6.70106 1.04167 7.27051 0.625C7.83995 0.208333 8.44412 0 9.08301 0ZM25.083 2.5H8.54134L3.29134 14.9583V18.8333H18.833L16.6247 29.2083L25.083 20.2917V2.5ZM25.083 20.2917V2.5V20.2917ZM27.583 21.3333V18.8333H33.1247V2.5H27.583V0H35.6247V21.3333H27.583Z" fill="#FF0000"/>
</svg>
