<svg width="36" height="34" viewBox="0 0 36 34" fill="none" xmlns="http://www.w3.org/2000/svg">
<path d="M26.8337 33.9998H8.33366V12.6665L19.917 0.666504L21.542 1.95817C21.7087 2.09706 21.8337 2.2915 21.917 2.5415C22.0003 2.7915 22.042 3.09706 22.042 3.45817V3.87484L20.167 12.6665H32.6253C33.292 12.6665 33.8753 12.9165 34.3753 13.4165C34.8753 13.9165 35.1253 14.4998 35.1253 15.1665V18.5832C35.1253 18.7776 35.1462 18.979 35.1878 19.1873C35.2295 19.3957 35.2087 19.5971 35.1253 19.7915L29.8753 31.8748C29.6253 32.4582 29.2156 32.9582 28.6462 33.3748C28.0767 33.7915 27.4725 33.9998 26.8337 33.9998ZM10.8337 31.4998H27.3753L32.6253 19.0415V15.1665H17.0837L19.292 4.7915L10.8337 13.7082V31.4998ZM10.8337 13.7082V31.4998V13.7082ZM8.33366 12.6665V15.1665H2.79199V31.4998H8.33366V33.9998H0.291992V12.6665H8.33366Z" fill="#54FF65"/>
</svg>
