<svg width="36" height="34" viewBox="0 0 36 34" fill="none" xmlns="http://www.w3.org/2000/svg">
<path d="M9.0835 0H27.5835V21.3333L16.0002 33.3333L14.3752 32.0417C14.2085 31.9028 14.0835 31.7083 14.0002 31.4583C13.9168 31.2083 13.8752 30.9028 13.8752 30.5417V30.125L15.7502 21.3333H3.29183C2.62516 21.3333 2.04183 21.0833 1.54183 20.5833C1.04183 20.0833 0.791829 19.5 0.791829 18.8333V15.4167C0.791829 15.2222 0.770996 15.0208 0.729329 14.8125C0.687663 14.6042 0.708496 14.4028 0.791829 14.2083L6.04183 2.125C6.29183 1.54167 6.70155 1.04167 7.271 0.625C7.84044 0.208333 8.44461 0 9.0835 0ZM25.0835 2.5H8.54183L3.29183 14.9583V18.8333H18.8335L16.6252 29.2083L25.0835 20.2917V2.5ZM25.0835 20.2917V2.5V20.2917ZM27.5835 21.3333V18.8333H33.1252V2.5H27.5835V0H35.6252V21.3333H27.5835Z" fill="#DEDEDE"/>
</svg>
