<svg width="19" height="19" viewBox="0 0 19 19" fill="none" xmlns="http://www.w3.org/2000/svg">
<path d="M9.5 19L6.33333 16.2857H1.58333C1.16111 16.2857 0.791667 16.1462 0.475 15.8673C0.158333 15.5883 0 15.2754 0 14.9286V1.35714C0 0.995238 0.158333 0.678571 0.475 0.407143C0.791667 0.135714 1.16111 0 1.58333 0H17.4167C17.8213 0 18.1863 0.135714 18.5118 0.407143C18.8373 0.678571 19 0.995238 19 1.35714V14.9286C19 15.2754 18.8373 15.5883 18.5118 15.8673C18.1863 16.1462 17.8213 16.2857 17.4167 16.2857H12.6667L9.5 19ZM1.58333 14.9286H6.96667L9.5 17.1L12.0333 14.9286H17.4167V1.35714H1.58333V14.9286ZM1.58333 1.35714V14.9286V1.35714ZM9.42083 13.1643C9.70232 13.1643 9.93982 13.0813 10.1333 12.9155C10.3269 12.7496 10.4236 12.546 10.4236 12.3048C10.4236 12.0635 10.3269 11.8599 10.1333 11.694C9.93982 11.5282 9.70232 11.4452 9.42083 11.4452C9.13935 11.4452 8.90185 11.5282 8.70833 11.694C8.51482 11.8599 8.41806 12.0635 8.41806 12.3048C8.41806 12.546 8.51482 12.7496 8.70833 12.9155C8.90185 13.0813 9.13935 13.1643 9.42083 13.1643ZM10.0542 9.81667C10.0542 9.34921 10.1421 8.96845 10.3181 8.6744C10.494 8.38036 10.8019 8.04484 11.2417 7.66786C11.8222 7.17024 12.2269 6.72917 12.4556 6.34464C12.6843 5.96012 12.7986 5.55675 12.7986 5.13452C12.7986 4.33532 12.4995 3.70198 11.9014 3.23452C11.3032 2.76706 10.494 2.53333 9.47361 2.53333C8.57639 2.53333 7.80671 2.71806 7.16458 3.0875C6.52245 3.45694 6.05185 3.96587 5.75278 4.61429L7.15139 5.11191C7.39769 4.68968 7.71435 4.36925 8.10139 4.1506C8.48843 3.93194 8.94583 3.82262 9.47361 3.82262C10.0366 3.82262 10.4808 3.94325 10.8063 4.18452C11.1317 4.42579 11.2944 4.75754 11.2944 5.17976C11.2944 5.48135 11.1977 5.77163 11.0042 6.0506C10.8106 6.32956 10.4852 6.65754 10.0278 7.03452C9.37685 7.5623 8.96782 8.01468 8.80069 8.39167C8.63356 8.76865 8.55 9.24365 8.55 9.81667H10.0542Z" fill="#5A5A5A"/>
</svg>
