<svg width="36" height="34" viewBox="0 0 36 34" fill="none" xmlns="http://www.w3.org/2000/svg">
<path d="M26.8332 33.9998H8.33317V12.6665L19.9165 0.666504L21.5415 1.95817C21.7082 2.09706 21.8332 2.2915 21.9165 2.5415C21.9998 2.7915 22.0415 3.09706 22.0415 3.45817V3.87484L20.1665 12.6665H32.6248C33.2915 12.6665 33.8748 12.9165 34.3748 13.4165C34.8748 13.9165 35.1248 14.4998 35.1248 15.1665V18.5832C35.1248 18.7776 35.1457 18.979 35.1873 19.1873C35.229 19.3957 35.2082 19.5971 35.1248 19.7915L29.8748 31.8748C29.6248 32.4582 29.2151 32.9582 28.6457 33.3748C28.0762 33.7915 27.4721 33.9998 26.8332 33.9998ZM10.8332 31.4998H27.3748L32.6248 19.0415V15.1665H17.0832L19.2915 4.7915L10.8332 13.7082V31.4998ZM10.8332 13.7082V31.4998V13.7082ZM8.33317 12.6665V15.1665H2.7915V31.4998H8.33317V33.9998H0.291504V12.6665H8.33317Z" fill="#DEDEDE"/>
</svg>
