<svg width="54" height="53" viewBox="0 0 54 53" fill="none" xmlns="http://www.w3.org/2000/svg">
<path d="M53.3865 20.2016H39.436C38.7275 20.2016 38.173 20.7895 37.9625 21.4672C37.4234 23.1999 35.8062 24.4565 33.8989 24.4565C31.5475 24.4565 29.644 22.5517 29.644 20.2016C29.644 18.8937 30.2345 17.7231 31.165 16.9428C31.7066 16.4871 32.0802 15.7298 31.8594 15.056L27.3953 1.31984C27.1758 0.645992 26.8216 0.645992 26.6021 1.31984L22.1804 14.9289C21.9609 15.6028 22.2946 16.4422 22.7631 16.9736C23.4203 17.718 23.8207 18.6935 23.8207 19.7652C23.8207 22.1153 21.916 24.0201 19.5659 24.0201C17.8113 24.0201 16.3199 22.9547 15.673 21.4376C15.3958 20.7856 14.7797 20.2003 14.0699 20.2003H0.613521C-0.0962622 20.2016 -0.205361 20.5392 0.36837 20.9563L12.2973 29.6226C12.8711 30.0385 13.7529 29.9653 14.392 29.6573C14.9427 29.3916 15.5588 29.2414 16.2121 29.2414C18.5622 29.2414 20.4669 31.1461 20.4669 33.495C20.4669 35.8451 18.5622 37.7498 16.2121 37.7498C15.9746 37.7498 15.7423 37.7254 15.5177 37.6831C15.139 37.6125 14.6667 38.0514 14.4485 38.7253L10.2964 51.5039C10.0769 52.1778 10.3644 52.387 10.9381 51.9699L22.3729 43.6617C22.9467 43.2458 23.1033 42.4552 22.9159 41.8198C22.8055 41.4451 22.7452 41.0484 22.7452 40.639C22.7452 38.2889 24.6499 36.3842 27 36.3842C29.3501 36.3842 31.2549 38.2889 31.2549 40.639C31.2549 41.0484 31.1945 41.4451 31.0841 41.8198C30.8968 42.4539 31.0533 43.2445 31.6271 43.6617L43.0619 51.9699C43.6343 52.3857 43.9231 52.1778 43.7037 51.5039L39.5849 38.8293C39.3654 38.1554 38.9624 37.6715 38.6748 37.7113C38.5054 37.737 38.3321 37.7498 38.155 37.7498C35.8049 37.7498 33.9015 35.8451 33.9015 33.495C33.9015 31.1461 35.8049 29.2414 38.155 29.2414C38.7288 29.2414 39.2717 29.3595 39.7697 29.57C40.4217 29.8459 41.324 29.8986 41.8978 29.4814L53.6329 20.9563C54.2067 20.5392 54.095 20.2016 53.3865 20.2016ZM26.9974 31.8495C24.9464 31.8495 23.2842 30.1873 23.2842 28.135C23.2842 26.084 24.9464 24.4218 26.9974 24.4218C29.0485 24.4218 30.7106 26.084 30.7106 28.135C30.7106 30.1873 29.0485 31.8495 26.9974 31.8495Z" fill="url(#paint0_linear_239_162)"/>
<defs>
<linearGradient id="paint0_linear_239_162" x1="22.3712" y1="31.1284" x2="50.1426" y2="62.757" gradientUnits="userSpaceOnUse">
<stop stop-color="#F0F0F0"/>
<stop offset="1" stop-color="#F0F0F0" stop-opacity="0"/>
</linearGradient>
</defs>
</svg>
