<svg width="24" height="24" viewBox="0 0 24 24" fill="none" xmlns="http://www.w3.org/2000/svg">
<path d="M1.96453 22.0355H3.40518L17.91 7.5307L16.4693 6.09004L1.96453 20.5948V22.0355ZM22.0682 6.12278L17.8772 1.93179L19.2524 0.556617C19.6235 0.185539 20.0819 0 20.6276 0C21.1733 0 21.6316 0.185539 22.0027 0.556617L23.4434 1.99727C23.8145 2.36835 24 2.82674 24 3.37244C24 3.91814 23.8145 4.37653 23.4434 4.74761L22.0682 6.12278ZM20.693 7.49795L4.191 24H0V19.809L16.502 3.30696L20.693 7.49795ZM17.1896 6.81037L16.4693 6.09004L17.91 7.5307L17.1896 6.81037Z" fill="#F2F2F2"/>
</svg>
