<svg width="15" height="18" viewBox="0 0 15 18" fill="none" xmlns="http://www.w3.org/2000/svg">
<path d="M0 15.3V13.95H1.96875V7.065C1.96875 5.805 2.35547 4.68375 3.12891 3.70125C3.90234 2.71875 4.92188 2.1 6.1875 1.845V1.1925C6.1875 0.8475 6.31641 0.5625 6.57422 0.3375C6.83203 0.1125 7.14062 0 7.5 0C7.85938 0 8.16797 0.1125 8.42578 0.3375C8.68359 0.5625 8.8125 0.8475 8.8125 1.1925V1.845C10.0781 2.1 11.1016 2.71875 11.8828 3.70125C12.6641 4.68375 13.0547 5.805 13.0547 7.065V13.95H15V15.3H0ZM7.5 18C7 18 6.5625 17.8237 6.1875 17.4713C5.8125 17.1187 5.625 16.695 5.625 16.2H9.375C9.375 16.695 9.19141 17.1187 8.82422 17.4713C8.45703 17.8237 8.01562 18 7.5 18ZM3.375 13.95H11.6484V7.065C11.6484 5.955 11.25 5.01 10.4531 4.23C9.65625 3.45 8.67969 3.06 7.52344 3.06C6.36719 3.06 5.38672 3.45 4.58203 4.23C3.77734 5.01 3.375 5.955 3.375 7.065V13.95Z" fill="#DEDEDE"/>
</svg>
