<svg width="42" height="42" viewBox="0 0 42 42" fill="none" xmlns="http://www.w3.org/2000/svg">
<path d="M15.948 29.8545L29.8542 21.0003L15.948 12.1462V29.8545ZM21.0001 41.8337C18.1529 41.8337 15.4619 41.2868 12.9272 40.193C10.3924 39.0993 8.1789 37.6062 6.28654 35.7139C4.39418 33.8215 2.90112 31.608 1.80737 29.0732C0.713623 26.5385 0.166748 23.8475 0.166748 21.0003C0.166748 18.1184 0.713623 15.41 1.80737 12.8753C2.90112 10.3406 4.39418 8.13574 6.28654 6.26074C8.1789 4.38574 10.3924 2.90137 12.9272 1.80762C15.4619 0.713867 18.1529 0.166992 21.0001 0.166992C23.882 0.166992 26.5904 0.713867 29.1251 1.80762C31.6598 2.90137 33.8647 4.38574 35.7397 6.26074C37.6147 8.13574 39.099 10.3406 40.1928 12.8753C41.2865 15.41 41.8334 18.1184 41.8334 21.0003C41.8334 23.8475 41.2865 26.5385 40.1928 29.0732C39.099 31.608 37.6147 33.8215 35.7397 35.7139C33.8647 37.6062 31.6598 39.0993 29.1251 40.193C26.5904 41.2868 23.882 41.8337 21.0001 41.8337ZM21.0001 38.7087C25.9306 38.7087 30.1147 36.9812 33.5522 33.5264C36.9897 30.0715 38.7084 25.8962 38.7084 21.0003C38.7084 16.0698 36.9897 11.8857 33.5522 8.44824C30.1147 5.01074 25.9306 3.29199 21.0001 3.29199C16.1042 3.29199 11.9289 5.01074 8.47404 8.44824C5.01918 11.8857 3.29175 16.0698 3.29175 21.0003C3.29175 25.8962 5.01918 30.0715 8.47404 33.5264C11.9289 36.9812 16.1042 38.7087 21.0001 38.7087Z" fill="#DEDEDE"/>
</svg>
