<svg width="15" height="15" viewBox="0 0 15 15" fill="none" xmlns="http://www.w3.org/2000/svg">
<path d="M1.15625 13.5507V13.8007H1.40625H13.5938H13.8438V13.5507V12.7295C13.8438 12.4208 13.754 12.1291 13.5821 11.8586C13.4129 11.5925 13.1977 11.3867 12.9348 11.2512L12.9348 11.2512L12.932 11.2498C11.9192 10.7442 10.9857 10.3936 10.1327 10.2029C9.28578 10.0135 8.40807 9.91908 7.5 9.91908C6.59191 9.91908 5.70674 10.0135 4.84484 10.2027C3.97567 10.3934 3.04147 10.7442 2.04318 11.2505L2.04174 11.2512C1.77742 11.3874 1.56492 11.595 1.40303 11.8638C1.24037 12.1339 1.15625 12.4237 1.15625 12.7295V13.5507ZM7.5 6.99638C6.52931 6.99638 5.75265 6.68076 5.14817 6.05779C4.5431 5.43421 4.23438 4.63001 4.23438 3.62319C4.23438 2.61637 4.5431 1.81217 5.14817 1.18859C5.75265 0.565616 6.52931 0.25 7.5 0.25C8.47069 0.25 9.24735 0.565616 9.85183 1.18859C10.4569 1.81217 10.7656 2.61637 10.7656 3.62319C10.7656 4.63001 10.4569 5.43421 9.85183 6.05779C9.24735 6.68076 8.47069 6.99638 7.5 6.99638ZM0.25 14.75V12.7295C0.25 12.1595 0.387652 11.6872 0.651774 11.3004C0.923858 10.9019 1.27244 10.6014 1.70036 10.3952C2.7347 9.91803 3.7233 9.56165 4.66641 9.32458C5.60788 9.08793 6.55226 8.96981 7.5 8.96981C8.44701 8.96981 9.38667 9.09177 10.3195 9.33605C11.2569 9.58154 12.2434 9.93466 13.2791 10.3966C13.7225 10.6033 14.0775 10.9038 14.3482 11.3004C14.6123 11.6872 14.75 12.1595 14.75 12.7295V14.75H0.25ZM7.5 6.0471C8.17209 6.0471 8.74231 5.81781 9.19114 5.35525C9.63946 4.89322 9.85938 4.30926 9.85938 3.62319C9.85938 2.93711 9.63946 2.35316 9.19114 1.89112C8.74231 1.42857 8.17209 1.19928 7.5 1.19928C6.82791 1.19928 6.25769 1.42857 5.80886 1.89112C5.36054 2.35316 5.14062 2.93711 5.14062 3.62319C5.14062 4.30926 5.36054 4.89322 5.80886 5.35525C6.25769 5.81781 6.82791 6.0471 7.5 6.0471Z" fill="#F2F2F2" stroke="#F2F2F2" stroke-width="0.5"/>
</svg>
