<svg width="35" height="36" viewBox="0 0 35 36" fill="none" xmlns="http://www.w3.org/2000/svg">
<path d="M17.5 17.4082C15.0938 17.4082 13.125 16.6192 11.5938 15.0411C10.0625 13.463 9.29688 11.434 9.29688 8.95411C9.29688 6.47424 10.0625 4.44525 11.5938 2.86715C13.125 1.28905 15.0938 0.5 17.5 0.5C19.9062 0.5 21.875 1.28905 23.4062 2.86715C24.9375 4.44525 25.7031 6.47424 25.7031 8.95411C25.7031 11.434 24.9375 13.463 23.4062 15.0411C21.875 16.6192 19.9062 17.4082 17.5 17.4082ZM0 35.5V30.2021C0 28.7743 0.346354 27.5531 1.03906 26.5386C1.73177 25.5242 2.625 24.7539 3.71875 24.2279C6.16146 23.1006 8.50391 22.2552 10.7461 21.6916C12.9883 21.128 15.2396 20.8462 17.5 20.8462C19.7604 20.8462 22.0026 21.1374 24.2266 21.7198C26.4505 22.3022 28.7839 23.1382 31.2266 24.2279C32.3568 24.7539 33.2682 25.5242 33.9609 26.5386C34.6536 27.5531 35 28.7743 35 30.2021V35.5H0ZM3.28125 32.1184H31.7188V30.2021C31.7188 29.6009 31.5456 29.0279 31.1992 28.4831C30.8529 27.9383 30.4245 27.5344 29.9141 27.2713C27.5807 26.1065 25.4479 25.3081 23.5156 24.876C21.5833 24.4439 19.5781 24.2279 17.5 24.2279C15.4219 24.2279 13.3984 24.4439 11.4297 24.876C9.46094 25.3081 7.32813 26.1065 5.03125 27.2713C4.52083 27.5344 4.10156 27.9383 3.77344 28.4831C3.44531 29.0279 3.28125 29.6009 3.28125 30.2021V32.1184ZM17.5 14.0266C18.9219 14.0266 20.0977 13.5475 21.0273 12.5894C21.957 11.6312 22.4219 10.4195 22.4219 8.95411C22.4219 7.48873 21.957 6.27697 21.0273 5.31884C20.0977 4.36071 18.9219 3.88164 17.5 3.88164C16.0781 3.88164 14.9023 4.36071 13.9727 5.31884C13.043 6.27697 12.5781 7.48873 12.5781 8.95411C12.5781 10.4195 13.043 11.6312 13.9727 12.5894C14.9023 13.5475 16.0781 14.0266 17.5 14.0266Z" fill="#F2F2F2"/>
</svg>
