<svg width="34" height="33" viewBox="0 0 34 33" fill="none" xmlns="http://www.w3.org/2000/svg">
<path d="M3.0625 29.6254H5.03333L24.876 10.2441L22.9052 8.31914L3.0625 27.7004V29.6254ZM30.5646 8.36289L24.8313 2.76289L26.7125 0.925391C27.2201 0.429557 27.8472 0.181641 28.5938 0.181641C29.3403 0.181641 29.9674 0.429557 30.475 0.925391L32.4458 2.85039C32.9535 3.34622 33.2073 3.95872 33.2073 4.68789C33.2073 5.41706 32.9535 6.02956 32.4458 6.52539L30.5646 8.36289ZM28.6833 10.2004L6.10833 32.2504H0.375V26.6504L22.95 4.60039L28.6833 10.2004ZM23.8906 9.28164L22.9052 8.31914L24.876 10.2441L23.8906 9.28164Z" fill="#1E1E1E"/>
</svg>
