<svg width="36" height="34" viewBox="0 0 36 34" fill="none" xmlns="http://www.w3.org/2000/svg">
<path d="M11.5199 27.988L18.3887 23.9734L25.2574 28.0307L23.4199 20.4286L29.4574 15.3036L21.4949 14.6202L18.3887 7.44525L15.2824 14.5775L7.31992 15.2609L13.3574 20.3859L11.5199 27.988ZM7.58242 33.3265L10.4262 21.3255L0.888672 13.2536L13.4887 12.1859L18.3887 0.868164L23.2887 12.1859L35.8887 13.2536L26.3512 21.3255L29.1949 33.3265L18.3887 26.963L7.58242 33.3265Z" fill="#FF0000"/>
<path d="M11.5199 27.988L18.3887 23.9734L25.2574 28.0307L23.4199 20.4286L29.4574 15.3036L21.4949 14.6202L18.3887 7.44525L15.2824 14.5775L7.31992 15.2609L13.3574 20.3859L11.5199 27.988ZM7.58242 33.3265L10.4262 21.3255L0.888672 13.2536L13.4887 12.1859L18.3887 0.868164L23.2887 12.1859L35.8887 13.2536L26.3512 21.3255L29.1949 33.3265L18.3887 26.963L7.58242 33.3265Z" stroke="#FF0000"/>
</svg>
