<svg width="35" height="36" viewBox="0 0 35 36" fill="none" xmlns="http://www.w3.org/2000/svg">
<path d="M32.8611 35.5L20.0764 22.7153C19.1042 23.5579 17.9699 24.2141 16.6736 24.684C15.3773 25.1539 14 25.3889 12.5417 25.3889C9.04167 25.3889 6.07639 24.1736 3.64583 21.7431C1.21528 19.3125 0 16.3796 0 12.9444C0 9.50926 1.21528 6.57639 3.64583 4.14583C6.07639 1.71528 9.02546 0.5 12.4931 0.5C15.9282 0.5 18.853 1.71528 21.2674 4.14583C23.6817 6.57639 24.8889 9.50926 24.8889 12.9444C24.8889 14.338 24.662 15.6829 24.2083 16.9792C23.7546 18.2755 23.0741 19.4907 22.1667 20.625L35 33.3611L32.8611 35.5ZM12.4931 22.4722C15.1181 22.4722 17.3542 21.5405 19.2014 19.6771C21.0486 17.8137 21.9722 15.5694 21.9722 12.9444C21.9722 10.3194 21.0486 8.07523 19.2014 6.2118C17.3542 4.34838 15.1181 3.41667 12.4931 3.41667C9.83565 3.41667 7.57523 4.34838 5.7118 6.2118C3.84838 8.07523 2.91667 10.3194 2.91667 12.9444C2.91667 15.5694 3.84838 17.8137 5.7118 19.6771C7.57523 21.5405 9.83565 22.4722 12.4931 22.4722Z" fill="#F2F2F2"/>
</svg>
