<svg width="52" height="51" viewBox="0 0 52 51" fill="none" xmlns="http://www.w3.org/2000/svg">
<path d="M20.0583 50.9163L18.7667 42.9101C17.9486 42.6136 17.0875 42.2111 16.1833 41.7028C15.2792 41.1945 14.4826 40.665 13.7937 40.1143L6.17291 43.5455L0.166656 33.1247L7.14166 28.1049C7.05555 27.7236 7.00173 27.2894 6.9802 26.8023C6.95867 26.3151 6.94791 25.8809 6.94791 25.4997C6.94791 25.1184 6.95867 24.6842 6.9802 24.1971C7.00173 23.7099 7.05555 23.2757 7.14166 22.8945L0.166656 17.8747L6.17291 7.45384L13.7937 10.8851C14.4826 10.3344 15.2792 9.80488 16.1833 9.29655C17.0875 8.78822 17.9486 8.40697 18.7667 8.1528L20.0583 0.0830078H31.9417L33.2333 8.08926C34.0514 8.38579 34.9233 8.77763 35.8489 9.26478C36.7746 9.75193 37.5604 10.292 38.2062 10.8851L45.8271 7.45384L51.8333 17.8747L44.8583 22.7674C44.9444 23.191 44.9983 23.6464 45.0198 24.1335C45.0413 24.6207 45.0521 25.0761 45.0521 25.4997C45.0521 25.9233 45.0413 26.3681 45.0198 26.834C44.9983 27.3 44.9444 27.7448 44.8583 28.1684L51.8333 33.1247L45.8271 43.5455L38.2062 40.1143C37.5174 40.665 36.7316 41.2051 35.8489 41.7346C34.9663 42.2641 34.0944 42.6559 33.2333 42.9101L31.9417 50.9163H20.0583ZM26 33.7601C28.325 33.7601 30.3055 32.9552 31.9417 31.3455C33.5778 29.7358 34.3958 27.7872 34.3958 25.4997C34.3958 23.2122 33.5778 21.2636 31.9417 19.6538C30.3055 18.0441 28.325 17.2393 26 17.2393C23.675 17.2393 21.6944 18.0441 20.0583 19.6538C18.4222 21.2636 17.6042 23.2122 17.6042 25.4997C17.6042 27.7872 18.4222 29.7358 20.0583 31.3455C21.6944 32.9552 23.675 33.7601 26 33.7601ZM26 29.9476C24.7514 29.9476 23.6858 29.5134 22.8031 28.645C21.9205 27.7766 21.4792 26.7281 21.4792 25.4997C21.4792 24.2712 21.9205 23.2228 22.8031 22.3544C23.6858 21.486 24.7514 21.0518 26 21.0518C27.2486 21.0518 28.3142 21.486 29.1969 22.3544C30.0795 23.2228 30.5208 24.2712 30.5208 25.4997C30.5208 26.7281 30.0795 27.7766 29.1969 28.645C28.3142 29.5134 27.2486 29.9476 26 29.9476ZM23.1583 47.1038H28.8417L29.7458 39.9872C31.1667 39.6483 32.5121 39.1188 33.7823 38.3986C35.0524 37.6785 36.2042 36.8101 37.2375 35.7934L44.0833 38.7163L46.6667 34.1413L40.5958 29.757C40.768 29.0368 40.908 28.3273 41.0156 27.6283C41.1233 26.9294 41.1771 26.2198 41.1771 25.4997C41.1771 24.7795 41.134 24.07 41.0479 23.371C40.9618 22.6721 40.8111 21.9625 40.5958 21.2424L46.6667 16.858L44.0833 12.283L37.2375 15.2059C36.2472 14.1045 35.1278 13.1832 33.8792 12.4419C32.6305 11.7005 31.2528 11.224 29.7458 11.0122L28.8417 3.89551H23.1583L22.2542 11.0122C20.7903 11.3087 19.4233 11.817 18.1531 12.5372C16.883 13.2573 15.7528 14.1469 14.7625 15.2059L7.91666 12.283L5.33332 16.858L11.4042 21.2424C11.2319 21.9625 11.092 22.6721 10.9844 23.371C10.8767 24.07 10.8229 24.7795 10.8229 25.4997C10.8229 26.2198 10.8767 26.9294 10.9844 27.6283C11.092 28.3273 11.2319 29.0368 11.4042 29.757L5.33332 34.1413L7.91666 38.7163L14.7625 35.7934C15.7958 36.8101 16.9476 37.6785 18.2177 38.3986C19.4878 39.1188 20.8333 39.6483 22.2542 39.9872L23.1583 47.1038Z" fill="#DEDEDE"/>
</svg>
