<svg width="54" height="55" viewBox="0 0 54 55" fill="none" xmlns="http://www.w3.org/2000/svg">
<path d="M53.3865 21.2016H39.436C38.7275 21.2016 38.173 21.7895 37.9625 22.4672C37.4234 24.1999 35.8062 25.4565 33.8989 25.4565C31.5475 25.4565 29.644 23.5517 29.644 21.2016C29.644 19.8937 30.2345 18.7231 31.165 17.9428C31.7066 17.4871 32.0802 16.7298 31.8594 16.056L27.3953 2.31984C27.1758 1.64599 26.8216 1.64599 26.6021 2.31984L22.1804 15.9289C21.9609 16.6028 22.2946 17.4422 22.7631 17.9736C23.4203 18.718 23.8207 19.6935 23.8207 20.7652C23.8207 23.1153 21.916 25.0201 19.5659 25.0201C17.8113 25.0201 16.3199 23.9547 15.673 22.4376C15.3958 21.7856 14.7797 21.2003 14.0699 21.2003H0.613521C-0.0962622 21.2016 -0.205361 21.5392 0.36837 21.9563L12.2973 30.6226C12.8711 31.0385 13.7529 30.9653 14.392 30.6573C14.9427 30.3916 15.5588 30.2414 16.2121 30.2414C18.5622 30.2414 20.4669 32.1461 20.4669 34.495C20.4669 36.8451 18.5622 38.7498 16.2121 38.7498C15.9746 38.7498 15.7423 38.7254 15.5177 38.6831C15.139 38.6125 14.6667 39.0514 14.4485 39.7253L10.2964 52.5039C10.0769 53.1778 10.3644 53.387 10.9381 52.9699L22.3729 44.6617C22.9467 44.2458 23.1033 43.4552 22.9159 42.8198C22.8055 42.4451 22.7452 42.0484 22.7452 41.639C22.7452 39.2889 24.6499 37.3842 27 37.3842C29.3501 37.3842 31.2549 39.2889 31.2549 41.639C31.2549 42.0484 31.1945 42.4451 31.0841 42.8198C30.8968 43.4539 31.0533 44.2445 31.6271 44.6617L43.0619 52.9699C43.6343 53.3857 43.9231 53.1778 43.7037 52.5039L39.5849 39.8293C39.3654 39.1554 38.9624 38.6715 38.6748 38.7113C38.5054 38.737 38.3321 38.7498 38.155 38.7498C35.8049 38.7498 33.9015 36.8451 33.9015 34.495C33.9015 32.1461 35.8049 30.2414 38.155 30.2414C38.7288 30.2414 39.2717 30.3595 39.7697 30.57C40.4217 30.8459 41.324 30.8986 41.8978 30.4814L53.6329 21.9563C54.2067 21.5392 54.095 21.2016 53.3865 21.2016ZM26.9974 32.8495C24.9464 32.8495 23.2842 31.1873 23.2842 29.135C23.2842 27.084 24.9464 25.4218 26.9974 25.4218C29.0485 25.4218 30.7106 27.084 30.7106 29.135C30.7106 31.1873 29.0485 32.8495 26.9974 32.8495Z" fill="url(#paint0_linear_239_160)"/>
<defs>
<linearGradient id="paint0_linear_239_160" x1="22.3712" y1="32.1284" x2="50.1426" y2="63.757" gradientUnits="userSpaceOnUse">
<stop stop-color="#F0F0F0"/>
<stop offset="1" stop-color="#F0F0F0" stop-opacity="0"/>
</linearGradient>
</defs>
</svg>
