<svg width="36" height="22" viewBox="0 0 36 22" fill="none" xmlns="http://www.w3.org/2000/svg">
<path fill-rule="evenodd" clip-rule="evenodd" d="M34.9665 2.35883C35.216 1.542 34.9665 0.970215 33.8021 0.970215H29.9209C28.9229 0.970215 28.4793 1.48754 28.2298 2.05932C28.2298 2.05932 26.2615 6.79695 23.4615 9.84645C22.5466 10.745 22.1585 11.0172 21.6595 11.0172C21.41 11.0172 21.0496 10.745 21.0496 9.92814V2.35883C21.0496 1.37863 20.7724 0.970215 19.9407 0.970215H13.8417C13.2318 0.970215 12.8437 1.43309 12.8437 1.8415C12.8437 2.76724 14.2298 2.98507 14.3962 5.54447V11.1534C14.3962 12.3786 14.1744 12.5965 13.6754 12.5965C12.3724 12.5965 9.15655 7.85883 7.2714 2.41329C6.88328 1.40586 6.52289 0.970215 5.52487 0.970215H1.64368C0.53477 0.970215 0.312988 1.48754 0.312988 2.05932C0.312988 3.06675 1.61596 8.07665 6.43972 14.693C9.65556 19.2128 14.1744 21.6633 18.2773 21.6633C20.7447 21.6633 21.0496 21.1187 21.0496 20.193V16.7623C21.0496 15.6732 21.2714 15.4554 22.0754 15.4554C22.6575 15.4554 23.6278 15.7276 25.9288 17.9059C28.5625 20.4925 29.0061 21.6633 30.4754 21.6633H34.3566C35.4655 21.6633 36.0199 21.1187 35.6872 20.0569C35.3268 18.995 34.0793 17.443 32.416 15.5915C31.5011 14.5296 30.1427 13.4133 29.7546 12.8415C29.1724 12.1064 29.3387 11.7796 29.7546 11.1534C29.7546 11.1262 34.4952 4.5915 34.9665 2.35883V2.35883Z" fill="white"/>
</svg>
